<?xml version="1.0" encoding="UTF-8" standalone="no"?>
<!DOCTYPE svg PUBLIC "-//W3C//DTD SVG 1.1//EN"
 "http://www.w3.org/Graphics/SVG/1.1/DTD/svg11.dtd">
<!-- Generated by graphviz version 2.43.0 (0)
 -->
<!-- Title: %3 Pages: 1 -->
<svg width="834pt" height="340pt"
 viewBox="0.00 0.00 834.00 339.50" xmlns="http://www.w3.org/2000/svg" xmlns:xlink="http://www.w3.org/1999/xlink">
<g id="graph0" class="graph" transform="scale(1 1) rotate(0) translate(4 335.5)">
<title>%3</title>
<polygon fill="#ffffff" stroke="transparent" points="-4,4 -4,-335.5 830,-335.5 830,4 -4,4"/>
<!-- icm&#45;to&#45;ecu -->
<g id="node1" class="node">
<title>icm&#45;to&#45;ecu</title>
<polygon fill="#ffffff" stroke="black" points="154,-138 0,-138 0,0 154,0 154,-138"/>
<polygon fill="none" stroke="black" points="0,-115 0,-138 154,-138 154,-115 0,-115"/>
<text text-anchor="start" x="45" y="-122.8" font-family="arial" font-size="14.00">icm&#45;to&#45;ecu</text>
<polygon fill="none" stroke="black" points="0,-92 0,-115 76,-115 76,-92 0,-92"/>
<text text-anchor="start" x="4" y="-99.8" font-family="arial" font-size="14.00">261205351</text>
<polygon fill="none" stroke="black" points="76,-92 76,-115 115,-115 115,-92 76,-92"/>
<text text-anchor="start" x="80" y="-99.8" font-family="arial" font-size="14.00">male</text>
<polygon fill="none" stroke="black" points="115,-92 115,-115 154,-115 154,-92 115,-92"/>
<text text-anchor="start" x="119" y="-99.8" font-family="arial" font-size="14.00">4&#45;pin</text>
<polygon fill="none" stroke="black" points="0,-69 0,-92 67,-92 67,-69 0,-69"/>
<text text-anchor="start" x="29.5" y="-76.8" font-family="arial" font-size="14.00">1</text>
<polygon fill="none" stroke="black" points="67,-69 67,-92 154,-92 154,-69 67,-69"/>
<text text-anchor="start" x="96.5" y="-76.8" font-family="arial" font-size="14.00">Pin1</text>
<polygon fill="none" stroke="black" points="0,-46 0,-69 67,-69 67,-46 0,-46"/>
<text text-anchor="start" x="29.5" y="-53.8" font-family="arial" font-size="14.00">2</text>
<polygon fill="none" stroke="black" points="67,-46 67,-69 154,-69 154,-46 67,-46"/>
<text text-anchor="start" x="96.5" y="-53.8" font-family="arial" font-size="14.00">Pin2</text>
<polygon fill="none" stroke="black" points="0,-23 0,-46 67,-46 67,-23 0,-23"/>
<text text-anchor="start" x="29.5" y="-30.8" font-family="arial" font-size="14.00">3</text>
<polygon fill="none" stroke="black" points="67,-23 67,-46 154,-46 154,-23 67,-23"/>
<text text-anchor="start" x="96.5" y="-30.8" font-family="arial" font-size="14.00">Pin3</text>
<polygon fill="none" stroke="black" points="0,0 0,-23 67,-23 67,0 0,0"/>
<text text-anchor="start" x="29.5" y="-7.8" font-family="arial" font-size="14.00">4</text>
<polygon fill="none" stroke="black" points="67,0 67,-23 154,-23 154,0 67,0"/>
<text text-anchor="start" x="96.5" y="-7.8" font-family="arial" font-size="14.00">Pin4</text>
</g>
<!-- icm&#45;to&#45;coil -->
<g id="node2" class="node">
<title>icm&#45;to&#45;coil</title>
<polygon fill="#ffffff" stroke="black" points="154,-300 0,-300 0,-162 154,-162 154,-300"/>
<polygon fill="none" stroke="black" points="0,-277 0,-300 154,-300 154,-277 0,-277"/>
<text text-anchor="start" x="45.5" y="-284.8" font-family="arial" font-size="14.00">icm&#45;to&#45;coil</text>
<polygon fill="none" stroke="black" points="0,-254 0,-277 76,-277 76,-254 0,-254"/>
<text text-anchor="start" x="4" y="-261.8" font-family="arial" font-size="14.00">261205289</text>
<polygon fill="none" stroke="black" points="76,-254 76,-277 115,-277 115,-254 76,-254"/>
<text text-anchor="start" x="80" y="-261.8" font-family="arial" font-size="14.00">male</text>
<polygon fill="none" stroke="black" points="115,-254 115,-277 154,-277 154,-254 115,-254"/>
<text text-anchor="start" x="119" y="-261.8" font-family="arial" font-size="14.00">4&#45;pin</text>
<polygon fill="none" stroke="black" points="0,-231 0,-254 87,-254 87,-231 0,-231"/>
<text text-anchor="start" x="29.5" y="-238.8" font-family="arial" font-size="14.00">Pin1</text>
<polygon fill="none" stroke="black" points="87,-231 87,-254 154,-254 154,-231 87,-231"/>
<text text-anchor="start" x="116.5" y="-238.8" font-family="arial" font-size="14.00">1</text>
<polygon fill="none" stroke="black" points="0,-208 0,-231 87,-231 87,-208 0,-208"/>
<text text-anchor="start" x="29.5" y="-215.8" font-family="arial" font-size="14.00">Pin2</text>
<polygon fill="none" stroke="black" points="87,-208 87,-231 154,-231 154,-208 87,-208"/>
<text text-anchor="start" x="116.5" y="-215.8" font-family="arial" font-size="14.00">2</text>
<polygon fill="none" stroke="black" points="0,-185 0,-208 87,-208 87,-185 0,-185"/>
<text text-anchor="start" x="29.5" y="-192.8" font-family="arial" font-size="14.00">Pin3</text>
<polygon fill="none" stroke="black" points="87,-185 87,-208 154,-208 154,-185 87,-185"/>
<text text-anchor="start" x="116.5" y="-192.8" font-family="arial" font-size="14.00">3</text>
<polygon fill="none" stroke="black" points="0,-162 0,-185 87,-185 87,-162 0,-162"/>
<text text-anchor="start" x="29.5" y="-169.8" font-family="arial" font-size="14.00">Pin4</text>
<polygon fill="none" stroke="black" points="87,-162 87,-185 154,-185 154,-162 87,-162"/>
<text text-anchor="start" x="116.5" y="-169.8" font-family="arial" font-size="14.00">4</text>
</g>
<!-- icm&#45;to&#45;coil&#45;wire -->
<g id="node4" class="node">
<title>icm&#45;to&#45;coil&#45;wire</title>
<polygon fill="#ffffff" stroke="black" points="520,-331.5 298,-331.5 298,-172.5 520,-172.5 520,-331.5"/>
<polygon fill="none" stroke="black" points="298,-308 298,-331 520,-331 520,-308 298,-308"/>
<text text-anchor="start" x="363" y="-315.8" font-family="arial" font-size="14.00">icm&#45;to&#45;coil&#45;wire</text>
<polygon fill="none" stroke="black" points="298,-285 298,-308 387,-308 387,-285 298,-285"/>
<text text-anchor="start" x="335" y="-292.8" font-family="arial" font-size="14.00">3x</text>
<polygon fill="none" stroke="black" points="387,-285 387,-308 520,-308 520,-285 387,-285"/>
<text text-anchor="start" x="424" y="-292.8" font-family="arial" font-size="14.00">0.25 mm²</text>
<text text-anchor="start" x="350.5" y="-271.8" font-family="arial" font-size="14.00"> </text>
<text text-anchor="start" x="300" y="-252.8" font-family="arial" font-size="14.00">icm&#45;to&#45;coil:1:Pin1</text>
<text text-anchor="start" x="409" y="-252.8" font-family="arial" font-size="14.00"> &#160;&#160;&#160;&#160;1 &#160;&#160;&#160;</text>
<text text-anchor="start" x="455" y="-252.8" font-family="arial" font-size="14.00">coil:3:Pin3</text>
<polygon fill="#000000" stroke="transparent" points="298,-245 298,-247 520,-247 520,-245 298,-245"/>
<polygon fill="#ffffff" stroke="transparent" points="298,-243 298,-245 520,-245 520,-243 298,-243"/>
<polygon fill="#000000" stroke="transparent" points="298,-241 298,-243 520,-243 520,-241 298,-241"/>
<text text-anchor="start" x="300" y="-227.8" font-family="arial" font-size="14.00">icm&#45;to&#45;coil:2:Pin2</text>
<text text-anchor="start" x="409" y="-227.8" font-family="arial" font-size="14.00"> &#160;&#160;&#160;&#160;2 &#160;&#160;&#160;</text>
<text text-anchor="start" x="455" y="-227.8" font-family="arial" font-size="14.00">coil:2:Pin2</text>
<polygon fill="#000000" stroke="transparent" points="298,-220 298,-222 520,-222 520,-220 298,-220"/>
<polygon fill="#ffffff" stroke="transparent" points="298,-218 298,-220 520,-220 520,-218 298,-218"/>
<polygon fill="#000000" stroke="transparent" points="298,-216 298,-218 520,-218 520,-216 298,-216"/>
<text text-anchor="start" x="300" y="-202.8" font-family="arial" font-size="14.00">icm&#45;to&#45;coil:3:Pin3</text>
<text text-anchor="start" x="409" y="-202.8" font-family="arial" font-size="14.00"> &#160;&#160;&#160;&#160;3 &#160;&#160;&#160;</text>
<text text-anchor="start" x="455" y="-202.8" font-family="arial" font-size="14.00">coil:1:Pin1</text>
<polygon fill="#000000" stroke="transparent" points="298,-195 298,-197 520,-197 520,-195 298,-195"/>
<polygon fill="#ffffff" stroke="transparent" points="298,-193 298,-195 520,-195 520,-193 298,-193"/>
<polygon fill="#000000" stroke="transparent" points="298,-191 298,-193 520,-193 520,-191 298,-191"/>
<text text-anchor="start" x="350.5" y="-177.8" font-family="arial" font-size="14.00"> </text>
</g>
<!-- icm&#45;to&#45;coil&#45;&#45;icm&#45;to&#45;coil&#45;wire -->
<g id="edge1" class="edge">
<title>icm&#45;to&#45;coil:e&#45;&#45;icm&#45;to&#45;coil&#45;wire:w</title>
<path fill="none" stroke="#000000" stroke-width="2" d="M154,-241C218.13,-241 234.12,-242 298,-242"/>
<path fill="none" stroke="#ffffff" stroke-width="2" d="M154,-243C218,-243 234,-244 298,-244"/>
<path fill="none" stroke="#000000" stroke-width="2" d="M154,-245C217.88,-245 233.87,-246 298,-246"/>
</g>
<!-- icm&#45;to&#45;coil&#45;&#45;icm&#45;to&#45;coil&#45;wire -->
<g id="edge3" class="edge">
<title>icm&#45;to&#45;coil:e&#45;&#45;icm&#45;to&#45;coil&#45;wire:w</title>
<path fill="none" stroke="#000000" stroke-width="2" d="M154,-217C218,-217 234,-217 298,-217"/>
<path fill="none" stroke="#ffffff" stroke-width="2" d="M154,-219C218,-219 234,-219 298,-219"/>
<path fill="none" stroke="#000000" stroke-width="2" d="M154,-221C218,-221 234,-221 298,-221"/>
</g>
<!-- icm&#45;to&#45;coil&#45;&#45;icm&#45;to&#45;coil&#45;wire -->
<g id="edge5" class="edge">
<title>icm&#45;to&#45;coil:e&#45;&#45;icm&#45;to&#45;coil&#45;wire:w</title>
<path fill="none" stroke="#000000" stroke-width="2" d="M154,-194C217.76,-194.02 233.75,-192.02 298,-192"/>
<path fill="none" stroke="#ffffff" stroke-width="2" d="M154,-196C218.01,-196 233.99,-194 298,-194"/>
<path fill="none" stroke="#000000" stroke-width="2" d="M154,-198C218.25,-197.98 234.24,-195.98 298,-196"/>
</g>
<!-- coil -->
<g id="node3" class="node">
<title>coil</title>
<polygon fill="#ffffff" stroke="black" points="826,-300 664,-300 664,-162 826,-162 826,-300"/>
<polygon fill="none" stroke="black" points="664,-277 664,-300 826,-300 826,-277 664,-277"/>
<text text-anchor="start" x="734.5" y="-284.8" font-family="arial" font-size="14.00">coil</text>
<polygon fill="none" stroke="black" points="664,-254 664,-277 748,-277 748,-254 664,-254"/>
<text text-anchor="start" x="668" y="-261.8" font-family="arial" font-size="14.00">1287013900</text>
<polygon fill="none" stroke="black" points="748,-254 748,-277 787,-277 787,-254 748,-254"/>
<text text-anchor="start" x="752" y="-261.8" font-family="arial" font-size="14.00">male</text>
<polygon fill="none" stroke="black" points="787,-254 787,-277 826,-277 826,-254 787,-254"/>
<text text-anchor="start" x="791" y="-261.8" font-family="arial" font-size="14.00">4&#45;pin</text>
<polygon fill="none" stroke="black" points="664,-231 664,-254 735,-254 735,-231 664,-231"/>
<text text-anchor="start" x="695.5" y="-238.8" font-family="arial" font-size="14.00">1</text>
<polygon fill="none" stroke="black" points="735,-231 735,-254 826,-254 826,-231 735,-231"/>
<text text-anchor="start" x="766.5" y="-238.8" font-family="arial" font-size="14.00">Pin1</text>
<polygon fill="none" stroke="black" points="664,-208 664,-231 735,-231 735,-208 664,-208"/>
<text text-anchor="start" x="695.5" y="-215.8" font-family="arial" font-size="14.00">2</text>
<polygon fill="none" stroke="black" points="735,-208 735,-231 826,-231 826,-208 735,-208"/>
<text text-anchor="start" x="766.5" y="-215.8" font-family="arial" font-size="14.00">Pin2</text>
<polygon fill="none" stroke="black" points="664,-185 664,-208 735,-208 735,-185 664,-185"/>
<text text-anchor="start" x="695.5" y="-192.8" font-family="arial" font-size="14.00">3</text>
<polygon fill="none" stroke="black" points="735,-185 735,-208 826,-208 826,-185 735,-185"/>
<text text-anchor="start" x="766.5" y="-192.8" font-family="arial" font-size="14.00">Pin3</text>
<polygon fill="none" stroke="black" points="664,-162 664,-185 735,-185 735,-162 664,-162"/>
<text text-anchor="start" x="695.5" y="-169.8" font-family="arial" font-size="14.00">4</text>
<polygon fill="none" stroke="black" points="735,-162 735,-185 826,-185 826,-162 735,-162"/>
<text text-anchor="start" x="766.5" y="-169.8" font-family="arial" font-size="14.00">Pin4</text>
</g>
<!-- icm&#45;to&#45;coil&#45;wire&#45;&#45;coil -->
<g id="edge2" class="edge">
<title>icm&#45;to&#45;coil&#45;wire:e&#45;&#45;coil:w</title>
<path fill="none" stroke="#000000" stroke-width="2" d="M520,-242C585.5,-243.63 594.57,-195.63 664,-194"/>
<path fill="none" stroke="#ffffff" stroke-width="2" d="M520,-244C587.46,-244 596.54,-196 664,-196"/>
<path fill="none" stroke="#000000" stroke-width="2" d="M520,-246C589.43,-244.37 598.5,-196.37 664,-198"/>
</g>
<!-- icm&#45;to&#45;coil&#45;wire&#45;&#45;coil -->
<g id="edge4" class="edge">
<title>icm&#45;to&#45;coil&#45;wire:e&#45;&#45;coil:w</title>
<path fill="none" stroke="#000000" stroke-width="2" d="M520,-217C584,-217 600,-217 664,-217"/>
<path fill="none" stroke="#ffffff" stroke-width="2" d="M520,-219C584,-219 600,-219 664,-219"/>
<path fill="none" stroke="#000000" stroke-width="2" d="M520,-221C584,-221 600,-221 664,-221"/>
</g>
<!-- icm&#45;to&#45;coil&#45;wire&#45;&#45;coil -->
<g id="edge6" class="edge">
<title>icm&#45;to&#45;coil&#45;wire:e&#45;&#45;coil:w</title>
<path fill="none" stroke="#000000" stroke-width="2" d="M520,-192C589.57,-193.65 598.36,-242.65 664,-241"/>
<path fill="none" stroke="#ffffff" stroke-width="2" d="M520,-194C587.6,-194 596.4,-243 664,-243"/>
<path fill="none" stroke="#000000" stroke-width="2" d="M520,-196C585.64,-194.35 594.43,-243.35 664,-245"/>
</g>
</g>
</svg>
