<?xml version="1.0" encoding="UTF-8" standalone="no"?>
<!DOCTYPE svg PUBLIC "-//W3C//DTD SVG 1.1//EN"
 "http://www.w3.org/Graphics/SVG/1.1/DTD/svg11.dtd">
<!-- Generated by graphviz version 2.43.0 (0)
 -->
<!-- Title: %3 Pages: 1 -->
<svg width="823pt" height="1192pt"
 viewBox="0.00 0.00 823.00 1191.50" xmlns="http://www.w3.org/2000/svg" xmlns:xlink="http://www.w3.org/1999/xlink">
<g id="graph0" class="graph" transform="scale(1 1) rotate(0) translate(4 1187.5)">
<title>%3</title>
<polygon fill="#ffffff" stroke="transparent" points="-4,4 -4,-1187.5 819,-1187.5 819,4 -4,4"/>
<!-- link_a_loom -->
<g id="node1" class="node">
<title>link_a_loom</title>
<polygon fill="#ffffff" stroke="black" points="107.5,-828 7.5,-828 7.5,0 107.5,0 107.5,-828"/>
<polygon fill="none" stroke="black" points="7.5,-805 7.5,-828 107.5,-828 107.5,-805 7.5,-805"/>
<text text-anchor="start" x="21" y="-812.8" font-family="arial" font-size="14.00">link_a_loom</text>
<polygon fill="none" stroke="black" points="7.5,-782 7.5,-805 51.5,-805 51.5,-782 7.5,-782"/>
<text text-anchor="start" x="17" y="-789.8" font-family="arial" font-size="14.00">5LA</text>
<polygon fill="none" stroke="black" points="51.5,-782 51.5,-805 107.5,-805 107.5,-782 51.5,-782"/>
<text text-anchor="start" x="60.5" y="-789.8" font-family="arial" font-size="14.00">34&#45;pin</text>
<polygon fill="none" stroke="black" points="7.5,-759 7.5,-782 83.5,-782 83.5,-759 7.5,-759"/>
<text text-anchor="start" x="34.5" y="-766.8" font-family="arial" font-size="14.00">Inj4</text>
<polygon fill="none" stroke="black" points="83.5,-759 83.5,-782 107.5,-782 107.5,-759 83.5,-759"/>
<text text-anchor="start" x="91.5" y="-766.8" font-family="arial" font-size="14.00">1</text>
<polygon fill="none" stroke="black" points="7.5,-736 7.5,-759 83.5,-759 83.5,-736 7.5,-736"/>
<text text-anchor="start" x="34.5" y="-743.8" font-family="arial" font-size="14.00">Inj3</text>
<polygon fill="none" stroke="black" points="83.5,-736 83.5,-759 107.5,-759 107.5,-736 83.5,-736"/>
<text text-anchor="start" x="91.5" y="-743.8" font-family="arial" font-size="14.00">2</text>
<polygon fill="none" stroke="black" points="7.5,-713 7.5,-736 83.5,-736 83.5,-713 7.5,-713"/>
<text text-anchor="start" x="34.5" y="-720.8" font-family="arial" font-size="14.00">Inj2</text>
<polygon fill="none" stroke="black" points="83.5,-713 83.5,-736 107.5,-736 107.5,-713 83.5,-713"/>
<text text-anchor="start" x="91.5" y="-720.8" font-family="arial" font-size="14.00">3</text>
<polygon fill="none" stroke="black" points="7.5,-690 7.5,-713 83.5,-713 83.5,-690 7.5,-690"/>
<text text-anchor="start" x="34.5" y="-697.8" font-family="arial" font-size="14.00">Inj1</text>
<polygon fill="none" stroke="black" points="83.5,-690 83.5,-713 107.5,-713 107.5,-690 83.5,-690"/>
<text text-anchor="start" x="91.5" y="-697.8" font-family="arial" font-size="14.00">4</text>
<polygon fill="none" stroke="black" points="7.5,-667 7.5,-690 83.5,-690 83.5,-667 7.5,-667"/>
<text text-anchor="start" x="29" y="-674.8" font-family="arial" font-size="14.00">+14V</text>
<polygon fill="none" stroke="black" points="83.5,-667 83.5,-690 107.5,-690 107.5,-667 83.5,-667"/>
<text text-anchor="start" x="91.5" y="-674.8" font-family="arial" font-size="14.00">5</text>
<polygon fill="none" stroke="black" points="7.5,-644 7.5,-667 83.5,-667 83.5,-644 7.5,-644"/>
<text text-anchor="start" x="33" y="-651.8" font-family="arial" font-size="14.00">+8V</text>
<polygon fill="none" stroke="black" points="83.5,-644 83.5,-667 107.5,-667 107.5,-644 83.5,-644"/>
<text text-anchor="start" x="91.5" y="-651.8" font-family="arial" font-size="14.00">6</text>
<polygon fill="none" stroke="black" points="7.5,-621 7.5,-644 83.5,-644 83.5,-621 7.5,-621"/>
<text text-anchor="start" x="11.5" y="-628.8" font-family="arial" font-size="14.00">Shield/Gnd</text>
<polygon fill="none" stroke="black" points="83.5,-621 83.5,-644 107.5,-644 107.5,-621 83.5,-621"/>
<text text-anchor="start" x="91.5" y="-628.8" font-family="arial" font-size="14.00">7</text>
<polygon fill="none" stroke="black" points="7.5,-598 7.5,-621 83.5,-621 83.5,-598 7.5,-598"/>
<text text-anchor="start" x="30" y="-605.8" font-family="arial" font-size="14.00">Trig1</text>
<polygon fill="none" stroke="black" points="83.5,-598 83.5,-621 107.5,-621 107.5,-598 83.5,-598"/>
<text text-anchor="start" x="91.5" y="-605.8" font-family="arial" font-size="14.00">8</text>
<polygon fill="none" stroke="black" points="7.5,-575 7.5,-598 83.5,-598 83.5,-575 7.5,-575"/>
<text text-anchor="start" x="30" y="-582.8" font-family="arial" font-size="14.00">Trig2</text>
<polygon fill="none" stroke="black" points="83.5,-575 83.5,-598 107.5,-598 107.5,-575 83.5,-575"/>
<text text-anchor="start" x="91.5" y="-582.8" font-family="arial" font-size="14.00">9</text>
<polygon fill="none" stroke="black" points="7.5,-552 7.5,-575 83.5,-575 83.5,-552 7.5,-552"/>
<text text-anchor="start" x="32" y="-559.8" font-family="arial" font-size="14.00">Ign4</text>
<polygon fill="none" stroke="black" points="83.5,-552 83.5,-575 107.5,-575 107.5,-552 83.5,-552"/>
<text text-anchor="start" x="87.5" y="-559.8" font-family="arial" font-size="14.00">10</text>
<polygon fill="none" stroke="black" points="7.5,-529 7.5,-552 83.5,-552 83.5,-529 7.5,-529"/>
<text text-anchor="start" x="32" y="-536.8" font-family="arial" font-size="14.00">Ign3</text>
<polygon fill="none" stroke="black" points="83.5,-529 83.5,-552 107.5,-552 107.5,-529 83.5,-529"/>
<text text-anchor="start" x="87.5" y="-536.8" font-family="arial" font-size="14.00">11</text>
<polygon fill="none" stroke="black" points="7.5,-506 7.5,-529 83.5,-529 83.5,-506 7.5,-506"/>
<text text-anchor="start" x="32" y="-513.8" font-family="arial" font-size="14.00">Ign2</text>
<polygon fill="none" stroke="black" points="83.5,-506 83.5,-529 107.5,-529 107.5,-506 83.5,-506"/>
<text text-anchor="start" x="87.5" y="-513.8" font-family="arial" font-size="14.00">12</text>
<polygon fill="none" stroke="black" points="7.5,-483 7.5,-506 83.5,-506 83.5,-483 7.5,-483"/>
<text text-anchor="start" x="32" y="-490.8" font-family="arial" font-size="14.00">Ign1</text>
<polygon fill="none" stroke="black" points="83.5,-483 83.5,-506 107.5,-506 107.5,-483 83.5,-483"/>
<text text-anchor="start" x="87.5" y="-490.8" font-family="arial" font-size="14.00">13</text>
<polygon fill="none" stroke="black" points="7.5,-460 7.5,-483 83.5,-483 83.5,-460 7.5,-460"/>
<text text-anchor="start" x="22" y="-467.8" font-family="arial" font-size="14.00">AnVolt4</text>
<polygon fill="none" stroke="black" points="83.5,-460 83.5,-483 107.5,-483 107.5,-460 83.5,-460"/>
<text text-anchor="start" x="87.5" y="-467.8" font-family="arial" font-size="14.00">14</text>
<polygon fill="none" stroke="black" points="7.5,-437 7.5,-460 83.5,-460 83.5,-437 7.5,-437"/>
<text text-anchor="start" x="24.5" y="-444.8" font-family="arial" font-size="14.00">Temp1</text>
<polygon fill="none" stroke="black" points="83.5,-437 83.5,-460 107.5,-460 107.5,-437 83.5,-437"/>
<text text-anchor="start" x="87.5" y="-444.8" font-family="arial" font-size="14.00">15</text>
<polygon fill="none" stroke="black" points="7.5,-414 7.5,-437 83.5,-437 83.5,-414 7.5,-414"/>
<text text-anchor="start" x="24.5" y="-421.8" font-family="arial" font-size="14.00">Temp2</text>
<polygon fill="none" stroke="black" points="83.5,-414 83.5,-437 107.5,-437 107.5,-414 83.5,-414"/>
<text text-anchor="start" x="87.5" y="-421.8" font-family="arial" font-size="14.00">16</text>
<polygon fill="none" stroke="black" points="7.5,-391 7.5,-414 83.5,-414 83.5,-391 7.5,-391"/>
<text text-anchor="start" x="22" y="-398.8" font-family="arial" font-size="14.00">AnVolt1</text>
<polygon fill="none" stroke="black" points="83.5,-391 83.5,-414 107.5,-414 107.5,-391 83.5,-391"/>
<text text-anchor="start" x="87.5" y="-398.8" font-family="arial" font-size="14.00">17</text>
<polygon fill="none" stroke="black" points="7.5,-368 7.5,-391 83.5,-391 83.5,-368 7.5,-368"/>
<text text-anchor="start" x="30" y="-375.8" font-family="arial" font-size="14.00">Aux4</text>
<polygon fill="none" stroke="black" points="83.5,-368 83.5,-391 107.5,-391 107.5,-368 83.5,-368"/>
<text text-anchor="start" x="87.5" y="-375.8" font-family="arial" font-size="14.00">18</text>
<polygon fill="none" stroke="black" points="7.5,-345 7.5,-368 83.5,-368 83.5,-345 7.5,-345"/>
<text text-anchor="start" x="30" y="-352.8" font-family="arial" font-size="14.00">Aux3</text>
<polygon fill="none" stroke="black" points="83.5,-345 83.5,-368 107.5,-368 107.5,-345 83.5,-345"/>
<text text-anchor="start" x="87.5" y="-352.8" font-family="arial" font-size="14.00">19</text>
<polygon fill="none" stroke="black" points="7.5,-322 7.5,-345 83.5,-345 83.5,-322 7.5,-322"/>
<text text-anchor="start" x="30" y="-329.8" font-family="arial" font-size="14.00">Aux2</text>
<polygon fill="none" stroke="black" points="83.5,-322 83.5,-345 107.5,-345 107.5,-322 83.5,-322"/>
<text text-anchor="start" x="87.5" y="-329.8" font-family="arial" font-size="14.00">20</text>
<polygon fill="none" stroke="black" points="7.5,-299 7.5,-322 83.5,-322 83.5,-299 7.5,-299"/>
<text text-anchor="start" x="30" y="-306.8" font-family="arial" font-size="14.00">Aux1</text>
<polygon fill="none" stroke="black" points="83.5,-299 83.5,-322 107.5,-322 107.5,-299 83.5,-299"/>
<text text-anchor="start" x="87.5" y="-306.8" font-family="arial" font-size="14.00">21</text>
<polygon fill="none" stroke="black" points="7.5,-276 7.5,-299 83.5,-299 83.5,-276 7.5,-276"/>
<text text-anchor="start" x="24" y="-283.8" font-family="arial" font-size="14.00">AnVol2</text>
<polygon fill="none" stroke="black" points="83.5,-276 83.5,-299 107.5,-299 107.5,-276 83.5,-276"/>
<text text-anchor="start" x="87.5" y="-283.8" font-family="arial" font-size="14.00">22</text>
<polygon fill="none" stroke="black" points="7.5,-253 7.5,-276 83.5,-276 83.5,-253 7.5,-253"/>
<text text-anchor="start" x="34.5" y="-260.8" font-family="arial" font-size="14.00">DI3</text>
<polygon fill="none" stroke="black" points="83.5,-253 83.5,-276 107.5,-276 107.5,-253 83.5,-253"/>
<text text-anchor="start" x="87.5" y="-260.8" font-family="arial" font-size="14.00">23</text>
<polygon fill="none" stroke="black" points="7.5,-230 7.5,-253 83.5,-253 83.5,-230 7.5,-230"/>
<text text-anchor="start" x="21" y="-237.8" font-family="arial" font-size="14.00">GndOut</text>
<polygon fill="none" stroke="black" points="83.5,-230 83.5,-253 107.5,-253 107.5,-230 83.5,-230"/>
<text text-anchor="start" x="87.5" y="-237.8" font-family="arial" font-size="14.00">24</text>
<polygon fill="none" stroke="black" points="7.5,-207 7.5,-230 83.5,-230 83.5,-207 7.5,-207"/>
<text text-anchor="start" x="22.5" y="-214.8" font-family="arial" font-size="14.00">Ground</text>
<polygon fill="none" stroke="black" points="83.5,-207 83.5,-230 107.5,-230 107.5,-207 83.5,-207"/>
<text text-anchor="start" x="87.5" y="-214.8" font-family="arial" font-size="14.00">25</text>
<polygon fill="none" stroke="black" points="7.5,-184 7.5,-207 83.5,-207 83.5,-184 7.5,-184"/>
<text text-anchor="start" x="30" y="-191.8" font-family="arial" font-size="14.00">Aux8</text>
<polygon fill="none" stroke="black" points="83.5,-184 83.5,-207 107.5,-207 107.5,-184 83.5,-184"/>
<text text-anchor="start" x="87.5" y="-191.8" font-family="arial" font-size="14.00">26</text>
<polygon fill="none" stroke="black" points="7.5,-161 7.5,-184 83.5,-184 83.5,-161 7.5,-161"/>
<text text-anchor="start" x="30" y="-168.8" font-family="arial" font-size="14.00">Aux7</text>
<polygon fill="none" stroke="black" points="83.5,-161 83.5,-184 107.5,-184 107.5,-161 83.5,-161"/>
<text text-anchor="start" x="87.5" y="-168.8" font-family="arial" font-size="14.00">27</text>
<polygon fill="none" stroke="black" points="7.5,-138 7.5,-161 83.5,-161 83.5,-138 7.5,-138"/>
<text text-anchor="start" x="30" y="-145.8" font-family="arial" font-size="14.00">Aux6</text>
<polygon fill="none" stroke="black" points="83.5,-138 83.5,-161 107.5,-161 107.5,-138 83.5,-138"/>
<text text-anchor="start" x="87.5" y="-145.8" font-family="arial" font-size="14.00">28</text>
<polygon fill="none" stroke="black" points="7.5,-115 7.5,-138 83.5,-138 83.5,-115 7.5,-115"/>
<text text-anchor="start" x="30" y="-122.8" font-family="arial" font-size="14.00">Aux5</text>
<polygon fill="none" stroke="black" points="83.5,-115 83.5,-138 107.5,-138 107.5,-115 83.5,-115"/>
<text text-anchor="start" x="87.5" y="-122.8" font-family="arial" font-size="14.00">29</text>
<polygon fill="none" stroke="black" points="7.5,-92 7.5,-115 83.5,-115 83.5,-92 7.5,-92"/>
<text text-anchor="start" x="34.5" y="-99.8" font-family="arial" font-size="14.00">DI1</text>
<polygon fill="none" stroke="black" points="83.5,-92 83.5,-115 107.5,-115 107.5,-92 83.5,-92"/>
<text text-anchor="start" x="87.5" y="-99.8" font-family="arial" font-size="14.00">30</text>
<polygon fill="none" stroke="black" points="7.5,-69 7.5,-92 83.5,-92 83.5,-69 7.5,-69"/>
<text text-anchor="start" x="34.5" y="-76.8" font-family="arial" font-size="14.00">DI2</text>
<polygon fill="none" stroke="black" points="83.5,-69 83.5,-92 107.5,-92 107.5,-69 83.5,-69"/>
<text text-anchor="start" x="87.5" y="-76.8" font-family="arial" font-size="14.00">31</text>
<polygon fill="none" stroke="black" points="7.5,-46 7.5,-69 83.5,-69 83.5,-46 7.5,-46"/>
<text text-anchor="start" x="33" y="-53.8" font-family="arial" font-size="14.00">+5V</text>
<polygon fill="none" stroke="black" points="83.5,-46 83.5,-69 107.5,-69 107.5,-46 83.5,-46"/>
<text text-anchor="start" x="87.5" y="-53.8" font-family="arial" font-size="14.00">32</text>
<polygon fill="none" stroke="black" points="7.5,-23 7.5,-46 83.5,-46 83.5,-23 7.5,-23"/>
<text text-anchor="start" x="22" y="-30.8" font-family="arial" font-size="14.00">AnVolt3</text>
<polygon fill="none" stroke="black" points="83.5,-23 83.5,-46 107.5,-46 107.5,-23 83.5,-23"/>
<text text-anchor="start" x="87.5" y="-30.8" font-family="arial" font-size="14.00">33</text>
<polygon fill="none" stroke="black" points="7.5,0 7.5,-23 83.5,-23 83.5,0 7.5,0"/>
<text text-anchor="start" x="22.5" y="-7.8" font-family="arial" font-size="14.00">Ground</text>
<polygon fill="none" stroke="black" points="83.5,0 83.5,-23 107.5,-23 107.5,0 83.5,0"/>
<text text-anchor="start" x="87.5" y="-7.8" font-family="arial" font-size="14.00">34</text>
</g>
<!-- ecu&#45;engine&#45;harness -->
<g id="node6" class="node">
<title>ecu&#45;engine&#45;harness</title>
<polygon fill="#ffffff" stroke="black" points="548,-630 259,-630 259,-296 548,-296 548,-630"/>
<polygon fill="none" stroke="black" points="259.5,-607 259.5,-630 548.5,-630 548.5,-607 259.5,-607"/>
<text text-anchor="start" x="344" y="-614.8" font-family="arial" font-size="14.00">ecu&#45;engine&#45;harness</text>
<polygon fill="none" stroke="black" points="259.5,-584 259.5,-607 548.5,-607 548.5,-584 259.5,-584"/>
<text text-anchor="start" x="393" y="-591.8" font-family="arial" font-size="14.00">10x</text>
<text text-anchor="start" x="320.5" y="-570.8" font-family="arial" font-size="14.00"> </text>
<text text-anchor="start" x="261.5" y="-551.8" font-family="arial" font-size="14.00">link_a_loom:11:Ign3</text>
<text text-anchor="start" x="391" y="-551.8" font-family="arial" font-size="14.00"> &#160;&#160;&#160;&#160;1 &#160;&#160;&#160;</text>
<text text-anchor="start" x="440.5" y="-551.8" font-family="arial" font-size="14.00">icm&#45;to&#45;ecu:1:Pin1</text>
<polygon fill="#000000" stroke="transparent" points="259.5,-544 259.5,-546 548.5,-546 548.5,-544 259.5,-544"/>
<polygon fill="#ffffff" stroke="transparent" points="259.5,-542 259.5,-544 548.5,-544 548.5,-542 259.5,-542"/>
<polygon fill="#000000" stroke="transparent" points="259.5,-540 259.5,-542 548.5,-542 548.5,-540 259.5,-540"/>
<text text-anchor="start" x="261.5" y="-526.8" font-family="arial" font-size="14.00">link_a_loom:12:Ign2</text>
<text text-anchor="start" x="391" y="-526.8" font-family="arial" font-size="14.00"> &#160;&#160;&#160;&#160;2 &#160;&#160;&#160;</text>
<text text-anchor="start" x="440.5" y="-526.8" font-family="arial" font-size="14.00">icm&#45;to&#45;ecu:2:Pin2</text>
<polygon fill="#000000" stroke="transparent" points="259.5,-519 259.5,-521 548.5,-521 548.5,-519 259.5,-519"/>
<polygon fill="#ffffff" stroke="transparent" points="259.5,-517 259.5,-519 548.5,-519 548.5,-517 259.5,-517"/>
<polygon fill="#000000" stroke="transparent" points="259.5,-515 259.5,-517 548.5,-517 548.5,-515 259.5,-515"/>
<text text-anchor="start" x="261.5" y="-501.8" font-family="arial" font-size="14.00">link_a_loom:13:Ign1</text>
<text text-anchor="start" x="391" y="-501.8" font-family="arial" font-size="14.00"> &#160;&#160;&#160;&#160;3 &#160;&#160;&#160;</text>
<text text-anchor="start" x="440.5" y="-501.8" font-family="arial" font-size="14.00">icm&#45;to&#45;ecu:3:Pin3</text>
<polygon fill="#000000" stroke="transparent" points="259.5,-494 259.5,-496 548.5,-496 548.5,-494 259.5,-494"/>
<polygon fill="#ffffff" stroke="transparent" points="259.5,-492 259.5,-494 548.5,-494 548.5,-492 259.5,-492"/>
<polygon fill="#000000" stroke="transparent" points="259.5,-490 259.5,-492 548.5,-492 548.5,-490 259.5,-490"/>
<text text-anchor="start" x="391" y="-476.8" font-family="arial" font-size="14.00"> &#160;&#160;&#160;&#160;4 &#160;&#160;&#160;</text>
<polygon fill="#000000" stroke="transparent" points="259.5,-469 259.5,-471 548.5,-471 548.5,-469 259.5,-469"/>
<polygon fill="#ffffff" stroke="transparent" points="259.5,-467 259.5,-469 548.5,-469 548.5,-467 259.5,-467"/>
<polygon fill="#000000" stroke="transparent" points="259.5,-465 259.5,-467 548.5,-467 548.5,-465 259.5,-465"/>
<text text-anchor="start" x="391" y="-451.8" font-family="arial" font-size="14.00"> &#160;&#160;&#160;&#160;5 &#160;&#160;&#160;</text>
<polygon fill="#000000" stroke="transparent" points="259.5,-444 259.5,-446 548.5,-446 548.5,-444 259.5,-444"/>
<polygon fill="#ffffff" stroke="transparent" points="259.5,-442 259.5,-444 548.5,-444 548.5,-442 259.5,-442"/>
<polygon fill="#000000" stroke="transparent" points="259.5,-440 259.5,-442 548.5,-442 548.5,-440 259.5,-440"/>
<text text-anchor="start" x="391" y="-426.8" font-family="arial" font-size="14.00"> &#160;&#160;&#160;&#160;6 &#160;&#160;&#160;</text>
<polygon fill="#000000" stroke="transparent" points="259.5,-419 259.5,-421 548.5,-421 548.5,-419 259.5,-419"/>
<polygon fill="#ffffff" stroke="transparent" points="259.5,-417 259.5,-419 548.5,-419 548.5,-417 259.5,-417"/>
<polygon fill="#000000" stroke="transparent" points="259.5,-415 259.5,-417 548.5,-417 548.5,-415 259.5,-415"/>
<text text-anchor="start" x="391" y="-401.8" font-family="arial" font-size="14.00"> &#160;&#160;&#160;&#160;7 &#160;&#160;&#160;</text>
<polygon fill="#000000" stroke="transparent" points="259.5,-394 259.5,-396 548.5,-396 548.5,-394 259.5,-394"/>
<polygon fill="#ffffff" stroke="transparent" points="259.5,-392 259.5,-394 548.5,-394 548.5,-392 259.5,-392"/>
<polygon fill="#000000" stroke="transparent" points="259.5,-390 259.5,-392 548.5,-392 548.5,-390 259.5,-390"/>
<text text-anchor="start" x="391" y="-376.8" font-family="arial" font-size="14.00"> &#160;&#160;&#160;&#160;8 &#160;&#160;&#160;</text>
<polygon fill="#000000" stroke="transparent" points="259.5,-369 259.5,-371 548.5,-371 548.5,-369 259.5,-369"/>
<polygon fill="#ffffff" stroke="transparent" points="259.5,-367 259.5,-369 548.5,-369 548.5,-367 259.5,-367"/>
<polygon fill="#000000" stroke="transparent" points="259.5,-365 259.5,-367 548.5,-367 548.5,-365 259.5,-365"/>
<text text-anchor="start" x="391" y="-351.8" font-family="arial" font-size="14.00"> &#160;&#160;&#160;&#160;9 &#160;&#160;&#160;</text>
<polygon fill="#000000" stroke="transparent" points="259.5,-344 259.5,-346 548.5,-346 548.5,-344 259.5,-344"/>
<polygon fill="#ffffff" stroke="transparent" points="259.5,-342 259.5,-344 548.5,-344 548.5,-342 259.5,-342"/>
<polygon fill="#000000" stroke="transparent" points="259.5,-340 259.5,-342 548.5,-342 548.5,-340 259.5,-340"/>
<text text-anchor="start" x="387.5" y="-326.8" font-family="arial" font-size="14.00"> &#160;&#160;&#160;&#160;10 &#160;&#160;&#160;</text>
<polygon fill="#000000" stroke="transparent" points="259.5,-319 259.5,-321 548.5,-321 548.5,-319 259.5,-319"/>
<polygon fill="#ffffff" stroke="transparent" points="259.5,-317 259.5,-319 548.5,-319 548.5,-317 259.5,-317"/>
<polygon fill="#000000" stroke="transparent" points="259.5,-315 259.5,-317 548.5,-317 548.5,-315 259.5,-315"/>
<text text-anchor="start" x="320.5" y="-301.8" font-family="arial" font-size="14.00"> </text>
</g>
<!-- link_a_loom&#45;&#45;ecu&#45;engine&#45;harness -->
<g id="edge1" class="edge">
<title>link_a_loom:e&#45;&#45;ecu&#45;engine&#45;harness:w</title>
<path fill="none" stroke="#000000" stroke-width="2" d="M108.5,-539C175.63,-539.01 192.34,-541.01 259,-541"/>
<path fill="none" stroke="#ffffff" stroke-width="2" d="M108.5,-541C175.39,-541 192.11,-543 259,-543"/>
<path fill="none" stroke="#000000" stroke-width="2" d="M108.5,-543C175.16,-542.99 191.87,-544.99 259,-545"/>
</g>
<!-- link_a_loom&#45;&#45;ecu&#45;engine&#45;harness -->
<g id="edge3" class="edge">
<title>link_a_loom:e&#45;&#45;ecu&#45;engine&#45;harness:w</title>
<path fill="none" stroke="#000000" stroke-width="2" d="M108.5,-516C175.39,-516 192.11,-516 259,-516"/>
<path fill="none" stroke="#ffffff" stroke-width="2" d="M108.5,-518C175.39,-518 192.11,-518 259,-518"/>
<path fill="none" stroke="#000000" stroke-width="2" d="M108.5,-520C175.39,-520 192.11,-520 259,-520"/>
</g>
<!-- link_a_loom&#45;&#45;ecu&#45;engine&#45;harness -->
<g id="edge5" class="edge">
<title>link_a_loom:e&#45;&#45;ecu&#45;engine&#45;harness:w</title>
<path fill="none" stroke="#000000" stroke-width="2" d="M108.5,-493C175.16,-493.01 191.87,-491.01 259,-491"/>
<path fill="none" stroke="#ffffff" stroke-width="2" d="M108.5,-495C175.39,-495 192.11,-493 259,-493"/>
<path fill="none" stroke="#000000" stroke-width="2" d="M108.5,-497C175.63,-496.99 192.34,-494.99 259,-495"/>
</g>
<!-- link_b_loom -->
<g id="node2" class="node">
<title>link_b_loom</title>
<polygon fill="#ffffff" stroke="black" points="98,-990 17,-990 17,-852 98,-852 98,-990"/>
<polygon fill="none" stroke="black" points="17.5,-967 17.5,-990 98.5,-990 98.5,-967 17.5,-967"/>
<text text-anchor="start" x="21.5" y="-974.8" font-family="arial" font-size="14.00">link_b_loom</text>
<polygon fill="none" stroke="black" points="17.5,-944 17.5,-967 55.5,-967 55.5,-944 17.5,-944"/>
<text text-anchor="start" x="24" y="-951.8" font-family="arial" font-size="14.00">5LB</text>
<polygon fill="none" stroke="black" points="55.5,-944 55.5,-967 98.5,-967 98.5,-944 55.5,-944"/>
<text text-anchor="start" x="61.5" y="-951.8" font-family="arial" font-size="14.00">4&#45;pin</text>
<polygon fill="none" stroke="black" points="17.5,-921 17.5,-944 48.5,-944 48.5,-921 17.5,-921"/>
<text text-anchor="start" x="29" y="-928.8" font-family="arial" font-size="14.00">1</text>
<polygon fill="none" stroke="black" points="48.5,-921 48.5,-944 98.5,-944 98.5,-921 48.5,-921"/>
<text text-anchor="start" x="59.5" y="-928.8" font-family="arial" font-size="14.00">Pin1</text>
<polygon fill="none" stroke="black" points="17.5,-898 17.5,-921 48.5,-921 48.5,-898 17.5,-898"/>
<text text-anchor="start" x="29" y="-905.8" font-family="arial" font-size="14.00">2</text>
<polygon fill="none" stroke="black" points="48.5,-898 48.5,-921 98.5,-921 98.5,-898 48.5,-898"/>
<text text-anchor="start" x="59.5" y="-905.8" font-family="arial" font-size="14.00">Pin2</text>
<polygon fill="none" stroke="black" points="17.5,-875 17.5,-898 48.5,-898 48.5,-875 17.5,-875"/>
<text text-anchor="start" x="29" y="-882.8" font-family="arial" font-size="14.00">3</text>
<polygon fill="none" stroke="black" points="48.5,-875 48.5,-898 98.5,-898 98.5,-875 48.5,-875"/>
<text text-anchor="start" x="59.5" y="-882.8" font-family="arial" font-size="14.00">Pin3</text>
<polygon fill="none" stroke="black" points="17.5,-852 17.5,-875 48.5,-875 48.5,-852 17.5,-852"/>
<text text-anchor="start" x="29" y="-859.8" font-family="arial" font-size="14.00">4</text>
<polygon fill="none" stroke="black" points="48.5,-852 48.5,-875 98.5,-875 98.5,-852 48.5,-852"/>
<text text-anchor="start" x="59.5" y="-859.8" font-family="arial" font-size="14.00">Pin4</text>
</g>
<!-- icm&#45;to&#45;ecu -->
<g id="node3" class="node">
<title>icm&#45;to&#45;ecu</title>
<polygon fill="#ffffff" stroke="black" points="811,-599 696,-599 696,-461 811,-461 811,-599"/>
<polygon fill="none" stroke="black" points="696.5,-576 696.5,-599 811.5,-599 811.5,-576 696.5,-576"/>
<text text-anchor="start" x="722" y="-583.8" font-family="arial" font-size="14.00">icm&#45;to&#45;ecu</text>
<polygon fill="none" stroke="black" points="696.5,-553 696.5,-576 772.5,-576 772.5,-553 696.5,-553"/>
<text text-anchor="start" x="700.5" y="-560.8" font-family="arial" font-size="14.00">261205351</text>
<polygon fill="none" stroke="black" points="772.5,-553 772.5,-576 811.5,-576 811.5,-553 772.5,-553"/>
<text text-anchor="start" x="776.5" y="-560.8" font-family="arial" font-size="14.00">4&#45;pin</text>
<polygon fill="none" stroke="black" points="696.5,-530 696.5,-553 744.5,-553 744.5,-530 696.5,-530"/>
<text text-anchor="start" x="716.5" y="-537.8" font-family="arial" font-size="14.00">1</text>
<polygon fill="none" stroke="black" points="744.5,-530 744.5,-553 811.5,-553 811.5,-530 744.5,-530"/>
<text text-anchor="start" x="764" y="-537.8" font-family="arial" font-size="14.00">Pin1</text>
<polygon fill="none" stroke="black" points="696.5,-507 696.5,-530 744.5,-530 744.5,-507 696.5,-507"/>
<text text-anchor="start" x="716.5" y="-514.8" font-family="arial" font-size="14.00">2</text>
<polygon fill="none" stroke="black" points="744.5,-507 744.5,-530 811.5,-530 811.5,-507 744.5,-507"/>
<text text-anchor="start" x="764" y="-514.8" font-family="arial" font-size="14.00">Pin2</text>
<polygon fill="none" stroke="black" points="696.5,-484 696.5,-507 744.5,-507 744.5,-484 696.5,-484"/>
<text text-anchor="start" x="716.5" y="-491.8" font-family="arial" font-size="14.00">3</text>
<polygon fill="none" stroke="black" points="744.5,-484 744.5,-507 811.5,-507 811.5,-484 744.5,-484"/>
<text text-anchor="start" x="764" y="-491.8" font-family="arial" font-size="14.00">Pin3</text>
<polygon fill="none" stroke="black" points="696.5,-461 696.5,-484 744.5,-484 744.5,-461 696.5,-461"/>
<text text-anchor="start" x="716.5" y="-468.8" font-family="arial" font-size="14.00">4</text>
<polygon fill="none" stroke="black" points="744.5,-461 744.5,-484 811.5,-484 811.5,-461 744.5,-461"/>
<text text-anchor="start" x="764" y="-468.8" font-family="arial" font-size="14.00">Pin4</text>
</g>
<!-- icm&#45;to&#45;coil -->
<g id="node4" class="node">
<title>icm&#45;to&#45;coil</title>
<polygon fill="#ffffff" stroke="black" points="115,-1152 0,-1152 0,-1014 115,-1014 115,-1152"/>
<polygon fill="none" stroke="black" points="0.5,-1129 0.5,-1152 115.5,-1152 115.5,-1129 0.5,-1129"/>
<text text-anchor="start" x="26.5" y="-1136.8" font-family="arial" font-size="14.00">icm&#45;to&#45;coil</text>
<polygon fill="none" stroke="black" points="0.5,-1106 0.5,-1129 76.5,-1129 76.5,-1106 0.5,-1106"/>
<text text-anchor="start" x="4.5" y="-1113.8" font-family="arial" font-size="14.00">261205289</text>
<polygon fill="none" stroke="black" points="76.5,-1106 76.5,-1129 115.5,-1129 115.5,-1106 76.5,-1106"/>
<text text-anchor="start" x="80.5" y="-1113.8" font-family="arial" font-size="14.00">4&#45;pin</text>
<polygon fill="none" stroke="black" points="0.5,-1083 0.5,-1106 68.5,-1106 68.5,-1083 0.5,-1083"/>
<text text-anchor="start" x="20.5" y="-1090.8" font-family="arial" font-size="14.00">Pin1</text>
<polygon fill="none" stroke="black" points="68.5,-1083 68.5,-1106 115.5,-1106 115.5,-1083 68.5,-1083"/>
<text text-anchor="start" x="88" y="-1090.8" font-family="arial" font-size="14.00">1</text>
<polygon fill="none" stroke="black" points="0.5,-1060 0.5,-1083 68.5,-1083 68.5,-1060 0.5,-1060"/>
<text text-anchor="start" x="20.5" y="-1067.8" font-family="arial" font-size="14.00">Pin2</text>
<polygon fill="none" stroke="black" points="68.5,-1060 68.5,-1083 115.5,-1083 115.5,-1060 68.5,-1060"/>
<text text-anchor="start" x="88" y="-1067.8" font-family="arial" font-size="14.00">2</text>
<polygon fill="none" stroke="black" points="0.5,-1037 0.5,-1060 68.5,-1060 68.5,-1037 0.5,-1037"/>
<text text-anchor="start" x="20.5" y="-1044.8" font-family="arial" font-size="14.00">Pin3</text>
<polygon fill="none" stroke="black" points="68.5,-1037 68.5,-1060 115.5,-1060 115.5,-1037 68.5,-1037"/>
<text text-anchor="start" x="88" y="-1044.8" font-family="arial" font-size="14.00">3</text>
<polygon fill="none" stroke="black" points="0.5,-1014 0.5,-1037 68.5,-1037 68.5,-1014 0.5,-1014"/>
<text text-anchor="start" x="20.5" y="-1021.8" font-family="arial" font-size="14.00">Pin4</text>
<polygon fill="none" stroke="black" points="68.5,-1014 68.5,-1037 115.5,-1037 115.5,-1014 68.5,-1014"/>
<text text-anchor="start" x="88" y="-1021.8" font-family="arial" font-size="14.00">4</text>
</g>
<!-- icm&#45;to&#45;coil&#45;wire -->
<g id="node7" class="node">
<title>icm&#45;to&#45;coil&#45;wire</title>
<polygon fill="#ffffff" stroke="black" points="514.5,-1183.5 292.5,-1183.5 292.5,-1024.5 514.5,-1024.5 514.5,-1183.5"/>
<polygon fill="none" stroke="black" points="292.5,-1160 292.5,-1183 514.5,-1183 514.5,-1160 292.5,-1160"/>
<text text-anchor="start" x="357.5" y="-1167.8" font-family="arial" font-size="14.00">icm&#45;to&#45;coil&#45;wire</text>
<polygon fill="none" stroke="black" points="292.5,-1137 292.5,-1160 514.5,-1160 514.5,-1137 292.5,-1137"/>
<text text-anchor="start" x="396" y="-1144.8" font-family="arial" font-size="14.00">3x</text>
<text text-anchor="start" x="345" y="-1123.8" font-family="arial" font-size="14.00"> </text>
<text text-anchor="start" x="294.5" y="-1104.8" font-family="arial" font-size="14.00">icm&#45;to&#45;coil:1:Pin1</text>
<text text-anchor="start" x="403.5" y="-1104.8" font-family="arial" font-size="14.00"> &#160;&#160;&#160;&#160;1 &#160;&#160;&#160;</text>
<text text-anchor="start" x="449.5" y="-1104.8" font-family="arial" font-size="14.00">coil:3:Pin3</text>
<polygon fill="#000000" stroke="transparent" points="292.5,-1097 292.5,-1099 514.5,-1099 514.5,-1097 292.5,-1097"/>
<polygon fill="#ffffff" stroke="transparent" points="292.5,-1095 292.5,-1097 514.5,-1097 514.5,-1095 292.5,-1095"/>
<polygon fill="#000000" stroke="transparent" points="292.5,-1093 292.5,-1095 514.5,-1095 514.5,-1093 292.5,-1093"/>
<text text-anchor="start" x="294.5" y="-1079.8" font-family="arial" font-size="14.00">icm&#45;to&#45;coil:2:Pin2</text>
<text text-anchor="start" x="403.5" y="-1079.8" font-family="arial" font-size="14.00"> &#160;&#160;&#160;&#160;2 &#160;&#160;&#160;</text>
<text text-anchor="start" x="449.5" y="-1079.8" font-family="arial" font-size="14.00">coil:2:Pin2</text>
<polygon fill="#000000" stroke="transparent" points="292.5,-1072 292.5,-1074 514.5,-1074 514.5,-1072 292.5,-1072"/>
<polygon fill="#ffffff" stroke="transparent" points="292.5,-1070 292.5,-1072 514.5,-1072 514.5,-1070 292.5,-1070"/>
<polygon fill="#000000" stroke="transparent" points="292.5,-1068 292.5,-1070 514.5,-1070 514.5,-1068 292.5,-1068"/>
<text text-anchor="start" x="294.5" y="-1054.8" font-family="arial" font-size="14.00">icm&#45;to&#45;coil:3:Pin3</text>
<text text-anchor="start" x="403.5" y="-1054.8" font-family="arial" font-size="14.00"> &#160;&#160;&#160;&#160;3 &#160;&#160;&#160;</text>
<text text-anchor="start" x="449.5" y="-1054.8" font-family="arial" font-size="14.00">coil:1:Pin1</text>
<polygon fill="#000000" stroke="transparent" points="292.5,-1047 292.5,-1049 514.5,-1049 514.5,-1047 292.5,-1047"/>
<polygon fill="#ffffff" stroke="transparent" points="292.5,-1045 292.5,-1047 514.5,-1047 514.5,-1045 292.5,-1045"/>
<polygon fill="#000000" stroke="transparent" points="292.5,-1043 292.5,-1045 514.5,-1045 514.5,-1043 292.5,-1043"/>
<text text-anchor="start" x="345" y="-1029.8" font-family="arial" font-size="14.00"> </text>
</g>
<!-- icm&#45;to&#45;coil&#45;&#45;icm&#45;to&#45;coil&#45;wire -->
<g id="edge7" class="edge">
<title>icm&#45;to&#45;coil:e&#45;&#45;icm&#45;to&#45;coil&#45;wire:w</title>
<path fill="none" stroke="#000000" stroke-width="2" d="M115,-1093C193.55,-1093 213.16,-1094 291.5,-1094"/>
<path fill="none" stroke="#ffffff" stroke-width="2" d="M115,-1095C193.45,-1095 213.05,-1096 291.5,-1096"/>
<path fill="none" stroke="#000000" stroke-width="2" d="M115,-1097C193.34,-1097 212.95,-1098 291.5,-1098"/>
</g>
<!-- icm&#45;to&#45;coil&#45;&#45;icm&#45;to&#45;coil&#45;wire -->
<g id="edge9" class="edge">
<title>icm&#45;to&#45;coil:e&#45;&#45;icm&#45;to&#45;coil&#45;wire:w</title>
<path fill="none" stroke="#000000" stroke-width="2" d="M115,-1069C193.44,-1069 213.06,-1069 291.5,-1069"/>
<path fill="none" stroke="#ffffff" stroke-width="2" d="M115,-1071C193.44,-1071 213.06,-1071 291.5,-1071"/>
<path fill="none" stroke="#000000" stroke-width="2" d="M115,-1073C193.44,-1073 213.06,-1073 291.5,-1073"/>
</g>
<!-- icm&#45;to&#45;coil&#45;&#45;icm&#45;to&#45;coil&#45;wire -->
<g id="edge11" class="edge">
<title>icm&#45;to&#45;coil:e&#45;&#45;icm&#45;to&#45;coil&#45;wire:w</title>
<path fill="none" stroke="#000000" stroke-width="2" d="M115,-1046C193.25,-1046.01 212.85,-1044.01 291.5,-1044"/>
<path fill="none" stroke="#ffffff" stroke-width="2" d="M115,-1048C193.45,-1048 213.05,-1046 291.5,-1046"/>
<path fill="none" stroke="#000000" stroke-width="2" d="M115,-1050C193.65,-1049.99 213.25,-1047.99 291.5,-1048"/>
</g>
<!-- coil -->
<g id="node5" class="node">
<title>coil</title>
<polygon fill="#ffffff" stroke="black" points="815,-1152 692,-1152 692,-1014 815,-1014 815,-1152"/>
<polygon fill="none" stroke="black" points="692.5,-1129 692.5,-1152 815.5,-1152 815.5,-1129 692.5,-1129"/>
<text text-anchor="start" x="743.5" y="-1136.8" font-family="arial" font-size="14.00">coil</text>
<polygon fill="none" stroke="black" points="692.5,-1106 692.5,-1129 776.5,-1129 776.5,-1106 692.5,-1106"/>
<text text-anchor="start" x="696.5" y="-1113.8" font-family="arial" font-size="14.00">1287013900</text>
<polygon fill="none" stroke="black" points="776.5,-1106 776.5,-1129 815.5,-1129 815.5,-1106 776.5,-1106"/>
<text text-anchor="start" x="780.5" y="-1113.8" font-family="arial" font-size="14.00">4&#45;pin</text>
<polygon fill="none" stroke="black" points="692.5,-1083 692.5,-1106 744.5,-1106 744.5,-1083 692.5,-1083"/>
<text text-anchor="start" x="714.5" y="-1090.8" font-family="arial" font-size="14.00">1</text>
<polygon fill="none" stroke="black" points="744.5,-1083 744.5,-1106 815.5,-1106 815.5,-1083 744.5,-1083"/>
<text text-anchor="start" x="766" y="-1090.8" font-family="arial" font-size="14.00">Pin1</text>
<polygon fill="none" stroke="black" points="692.5,-1060 692.5,-1083 744.5,-1083 744.5,-1060 692.5,-1060"/>
<text text-anchor="start" x="714.5" y="-1067.8" font-family="arial" font-size="14.00">2</text>
<polygon fill="none" stroke="black" points="744.5,-1060 744.5,-1083 815.5,-1083 815.5,-1060 744.5,-1060"/>
<text text-anchor="start" x="766" y="-1067.8" font-family="arial" font-size="14.00">Pin2</text>
<polygon fill="none" stroke="black" points="692.5,-1037 692.5,-1060 744.5,-1060 744.5,-1037 692.5,-1037"/>
<text text-anchor="start" x="714.5" y="-1044.8" font-family="arial" font-size="14.00">3</text>
<polygon fill="none" stroke="black" points="744.5,-1037 744.5,-1060 815.5,-1060 815.5,-1037 744.5,-1037"/>
<text text-anchor="start" x="766" y="-1044.8" font-family="arial" font-size="14.00">Pin3</text>
<polygon fill="none" stroke="black" points="692.5,-1014 692.5,-1037 744.5,-1037 744.5,-1014 692.5,-1014"/>
<text text-anchor="start" x="714.5" y="-1021.8" font-family="arial" font-size="14.00">4</text>
<polygon fill="none" stroke="black" points="744.5,-1014 744.5,-1037 815.5,-1037 815.5,-1014 744.5,-1014"/>
<text text-anchor="start" x="766" y="-1021.8" font-family="arial" font-size="14.00">Pin4</text>
</g>
<!-- ecu&#45;engine&#45;harness&#45;&#45;icm&#45;to&#45;ecu -->
<g id="edge2" class="edge">
<title>ecu&#45;engine&#45;harness:e&#45;&#45;icm&#45;to&#45;ecu:w</title>
<path fill="none" stroke="#000000" stroke-width="2" d="M548,-541C613.44,-541 629.82,-540 695.5,-540"/>
<path fill="none" stroke="#ffffff" stroke-width="2" d="M548,-543C613.56,-543 629.94,-542 695.5,-542"/>
<path fill="none" stroke="#000000" stroke-width="2" d="M548,-545C613.68,-545 630.06,-544 695.5,-544"/>
</g>
<!-- ecu&#45;engine&#45;harness&#45;&#45;icm&#45;to&#45;ecu -->
<g id="edge4" class="edge">
<title>ecu&#45;engine&#45;harness:e&#45;&#45;icm&#45;to&#45;ecu:w</title>
<path fill="none" stroke="#000000" stroke-width="2" d="M548,-516C613.56,-516 629.94,-516 695.5,-516"/>
<path fill="none" stroke="#ffffff" stroke-width="2" d="M548,-518C613.56,-518 629.94,-518 695.5,-518"/>
<path fill="none" stroke="#000000" stroke-width="2" d="M548,-520C613.56,-520 629.94,-520 695.5,-520"/>
</g>
<!-- ecu&#45;engine&#45;harness&#45;&#45;icm&#45;to&#45;ecu -->
<g id="edge6" class="edge">
<title>ecu&#45;engine&#45;harness:e&#45;&#45;icm&#45;to&#45;ecu:w</title>
<path fill="none" stroke="#000000" stroke-width="2" d="M548,-491C613.8,-491.01 630.18,-493.01 695.5,-493"/>
<path fill="none" stroke="#ffffff" stroke-width="2" d="M548,-493C613.56,-493 629.94,-495 695.5,-495"/>
<path fill="none" stroke="#000000" stroke-width="2" d="M548,-495C613.32,-494.99 629.7,-496.99 695.5,-497"/>
</g>
<!-- icm&#45;to&#45;coil&#45;wire&#45;&#45;coil -->
<g id="edge8" class="edge">
<title>icm&#45;to&#45;coil&#45;wire:e&#45;&#45;coil:w</title>
<path fill="none" stroke="#000000" stroke-width="2" d="M515.5,-1094C594.87,-1095.44 608.79,-1047.44 692,-1046"/>
<path fill="none" stroke="#ffffff" stroke-width="2" d="M515.5,-1096C596.79,-1096 610.71,-1048 692,-1048"/>
<path fill="none" stroke="#000000" stroke-width="2" d="M515.5,-1098C598.71,-1096.56 612.63,-1048.56 692,-1050"/>
</g>
<!-- icm&#45;to&#45;coil&#45;wire&#45;&#45;coil -->
<g id="edge10" class="edge">
<title>icm&#45;to&#45;coil&#45;wire:e&#45;&#45;coil:w</title>
<path fill="none" stroke="#000000" stroke-width="2" d="M515.5,-1069C593.94,-1069 613.56,-1069 692,-1069"/>
<path fill="none" stroke="#ffffff" stroke-width="2" d="M515.5,-1071C593.94,-1071 613.56,-1071 692,-1071"/>
<path fill="none" stroke="#000000" stroke-width="2" d="M515.5,-1073C593.94,-1073 613.56,-1073 692,-1073"/>
</g>
<!-- icm&#45;to&#45;coil&#45;wire&#45;&#45;coil -->
<g id="edge12" class="edge">
<title>icm&#45;to&#45;coil&#45;wire:e&#45;&#45;coil:w</title>
<path fill="none" stroke="#000000" stroke-width="2" d="M515.5,-1044C598.84,-1045.46 612.52,-1094.46 692,-1093"/>
<path fill="none" stroke="#ffffff" stroke-width="2" d="M515.5,-1046C596.91,-1046 610.59,-1095 692,-1095"/>
<path fill="none" stroke="#000000" stroke-width="2" d="M515.5,-1048C594.98,-1046.54 608.66,-1095.54 692,-1097"/>
</g>
</g>
</svg>
